0
SECTION
2
HEADER
9
$ACADVER
1
AC1015
9
$INSUNITS
70
6
0
ENDSEC
0
SECTION
2
TABLES
0
TABLE
2
LAYER
5
65
100
AcDbSymbolTable
70
1
0
LAYER
5
64
100
AcDbSymbolTableRecord
100
AcDbLayerTableRecord
2
PARCELS
70
0
62
1
6
Continuous
0
ENDTAB
0
ENDSEC
0
SECTION
2
ENTITIES
0
LWPOLYLINE
5
66
8
PARCELS
100
AcDbEntity
100
AcDbPolyline
90
5
70
1
10
34.79341099657441
20
32.050647240024645
10
34.79313414399125
20
32.048536545163195
10
34.79306319874571
20
32.04864677013349
10
34.7933226650289
20
32.05066412825983
10
34.79341099657441
20
32.050647240024645
0
LWPOLYLINE
5
67
8
PARCELS
100
AcDbEntity
100
AcDbPolyline
90
5
70
1
10
34.79313414399125
20
32.048536545163195
10
34.7930925778178
20
32.04821964491489
10
34.79302228207653
20
32.04832862930604
10
34.79306319874571
20
32.04864677013349
10
34.79313414399125
20
32.048536545163195
0
LWPOLYLINE
5
68
8
PARCELS
100
AcDbEntity
100
AcDbPolyline
90
7
70
1
10
34.7934852944766
20
32.04764459094124
10
34.793192511113396
20
32.047604937608256
10
34.79325011952865
20
32.04803191848158
10
34.79330774900454
20
32.0479763078571
10
34.79340545939915
20
32.04789156398106
10
34.793509519377444
20
32.047814138813514
10
34.7934852944766
20
32.04764459094124
0
LWPOLYLINE
5
69
8
PARCELS
100
AcDbEntity
100
AcDbPolyline
90
6
70
1
10
34.79304330316569
20
32.05070904214162
10
34.792829214952526
20
32.049020345636826
10
34.7927036314285
20
32.04922313872979
10
34.79295810578661
20
32.051199665169
10
34.79310233142971
20
32.05117581184522
10
34.79304330316569
20
32.05070904214162
0
LWPOLYLINE
5
6A
8
PARCELS
100
AcDbEntity
100
AcDbPolyline
90
7
70
1
10
34.79232412507432
20
32.04754641161273
10
34.79223109277899
20
32.04753833574187
10
34.79271210290263
20
32.051240357969675
10
34.79280041217178
20
32.05122575613521
10
34.79256811289477
20
32.04943126507921
10
34.79252638837914
20
32.04910893719747
10
34.79232412507432
20
32.04754641161273
0
LWPOLYLINE
5
6B
8
PARCELS
100
AcDbEntity
100
AcDbPolyline
90
5
70
1
10
34.79248930760803
20
32.047558410185225
10
34.79232412507432
20
32.04754641161273
10
34.79252638837914
20
32.04910893719747
10
34.79266158668353
20
32.04889657141633
10
34.79248930760803
20
32.047558410185225
0
LWPOLYLINE
5
6C
8
PARCELS
100
AcDbEntity
100
AcDbPolyline
90
5
70
1
10
34.792696279958314
20
32.04756828075845
10
34.79264485361333
20
32.04756601256988
10
34.792788419414336
20
32.04869847172882
10
34.792829655453794
20
32.04863091707111
10
34.792696279958314
20
32.04756828075845
0
LWPOLYLINE
5
6D
8
PARCELS
100
AcDbEntity
100
AcDbPolyline
90
5
70
1
10
34.7916603274415
20
32.04750256244914
10
34.79149052399488
20
32.04749398357686
10
34.79204102981906
20
32.051351351790025
10
34.7922011609367
20
32.05132487290834
10
34.7916603274415
20
32.04750256244914
0
LWPOLYLINE
5
6E
8
PARCELS
100
AcDbEntity
100
AcDbPolyline
90
7
70
1
10
34.79359912202762
20
32.05061855054837
10
34.79328570538301
20
32.04829566839339
10
34.79323305311785
20
32.048373074334606
10
34.79319408539437
20
32.048437565882594
10
34.79313414399125
20
32.048536545163195
10
34.79341099657441
20
32.050647240024645
10
34.79359912202762
20
32.05061855054837
0
LWPOLYLINE
5
6F
8
PARCELS
100
AcDbEntity
100
AcDbPolyline
90
5
70
1
10
34.79301072823748
20
32.0475956076954
10
34.79292702915477
20
32.04758800449826
10
34.79302228207653
20
32.04832862930604
10
34.7930925778178
20
32.04821964491489
10
34.79301072823748
20
32.0475956076954
0
LWPOLYLINE
5
70
8
PARCELS
100
AcDbEntity
100
AcDbPolyline
90
5
70
1
10
34.792829214952526
20
32.049020345636826
10
34.792788419414336
20
32.04869847172882
10
34.79266158668353
20
32.04889657141633
10
34.7927036314285
20
32.04922313872979
10
34.792829214952526
20
32.049020345636826
0
LWPOLYLINE
5
71
8
PARCELS
100
AcDbEntity
100
AcDbPolyline
90
5
70
1
10
34.79308965767178
20
32.05070223972878
10
34.79287029468523
20
32.048954621100854
10
34.792829214952526
20
32.049020345636826
10
34.79304330316569
20
32.05070904214162
10
34.79308965767178
20
32.05070223972878
0
LWPOLYLINE
5
72
8
PARCELS
100
AcDbEntity
100
AcDbPolyline
90
5
70
1
10
34.79283384167748
20
32.04757956694687
10
34.792696279958314
20
32.04756828075845
10
34.792829655453794
20
32.04863091707111
10
34.79294449472659
20
32.048448580387344
10
34.79283384167748
20
32.04757956694687
0
LWPOLYLINE
5
73
8
PARCELS
100
AcDbEntity
100
AcDbPolyline
90
5
70
1
10
34.79192094803726
20
32.04751735235951
10
34.7916603274415
20
32.04750256244914
10
34.7922011609367
20
32.05132487290834
10
34.79243339971259
20
32.05128645397932
10
34.79192094803726
20
32.04751735235951
0
LWPOLYLINE
5
74
8
PARCELS
100
AcDbEntity
100
AcDbPolyline
90
5
70
1
10
34.79287029468523
20
32.048954621100854
10
34.792829655453794
20
32.04863091707111
10
34.792788419414336
20
32.04869847172882
10
34.792829214952526
20
32.049020345636826
10
34.79287029468523
20
32.048954621100854
0
LWPOLYLINE
5
75
8
PARCELS
100
AcDbEntity
100
AcDbPolyline
90
5
70
1
10
34.79149052399488
20
32.04749398357686
10
34.79118028963344
20
32.04748595053669
10
34.79177069703032
20
32.05139606676975
10
34.79204102981906
20
32.051351351790025
10
34.79149052399488
20
32.04749398357686
0
LWPOLYLINE
5
76
8
PARCELS
100
AcDbEntity
100
AcDbPolyline
90
10
70
1
10
34.79292702915477
20
32.04758800449826
10
34.79283384167748
20
32.04757956694687
10
34.79294449472659
20
32.048448580387344
10
34.79294548904422
20
32.048456368787996
10
34.79298562135954
20
32.04877157085158
10
34.79322843963969
20
32.05067848582654
10
34.7933226650289
20
32.05066412825983
10
34.79306319874571
20
32.04864677013349
10
34.79302228207653
20
32.04832862930604
10
34.79292702915477
20
32.04758800449826
0
LWPOLYLINE
5
77
8
PARCELS
100
AcDbEntity
100
AcDbPolyline
90
5
70
1
10
34.79322843963969
20
32.05067848582654
10
34.79298562135954
20
32.04877157085158
10
34.79287029468523
20
32.048954621100854
10
34.79308965767178
20
32.05070223972878
10
34.79322843963969
20
32.05067848582654
0
LWPOLYLINE
5
78
8
PARCELS
100
AcDbEntity
100
AcDbPolyline
90
5
70
1
10
34.7927036314285
20
32.04922313872979
10
34.79266158668353
20
32.04889657141633
10
34.79252638837914
20
32.04910893719747
10
34.79256811289477
20
32.04943126507921
10
34.7927036314285
20
32.04922313872979
0
LWPOLYLINE
5
79
8
PARCELS
100
AcDbEntity
100
AcDbPolyline
90
6
70
1
10
34.79294548904422
20
32.048456368787996
10
34.79294449472659
20
32.048448580387344
10
34.792829655453794
20
32.04863091707111
10
34.79287029468523
20
32.048954621100854
10
34.79298562135954
20
32.04877157085158
10
34.79294548904422
20
32.048456368787996
0
LWPOLYLINE
5
7A
8
PARCELS
100
AcDbEntity
100
AcDbPolyline
90
8
70
1
10
34.79328570538301
20
32.04829566839339
10
34.79325011952865
20
32.04803191848158
10
34.7931618386339
20
32.04812777675265
10
34.7930925778178
20
32.04821964491489
10
34.79313414399125
20
32.048536545163195
10
34.79319408539437
20
32.048437565882594
10
34.79323305311785
20
32.048373074334606
10
34.79328570538301
20
32.04829566839339
0
LWPOLYLINE
5
7B
8
PARCELS
100
AcDbEntity
100
AcDbPolyline
90
8
70
1
10
34.79177069703032
20
32.05139606676975
10
34.79118028963344
20
32.04748595053669
10
34.79112958950552
20
32.047487027045314
10
34.79105084587147
20
32.04748484050061
10
34.79166025171809
20
32.05141433735125
10
34.79168963083913
20
32.051409051105715
10
34.79172840717409
20
32.0514030622871
10
34.79177069703032
20
32.05139606676975
0
LWPOLYLINE
5
7C
8
PARCELS
100
AcDbEntity
100
AcDbPolyline
90
6
70
1
10
34.793192511113396
20
32.047604937608256
10
34.79301072823748
20
32.0475956076954
10
34.7930925778178
20
32.04821964491489
10
34.7931618386339
20
32.04812777675265
10
34.79325011952865
20
32.04803191848158
10
34.793192511113396
20
32.047604937608256
0
LWPOLYLINE
5
7D
8
PARCELS
100
AcDbEntity
100
AcDbPolyline
90
5
70
1
10
34.79223109277899
20
32.04753833574187
10
34.79192094803726
20
32.04751735235951
10
34.79243339971259
20
32.05128645397932
10
34.79271210290263
20
32.051240357969675
10
34.79223109277899
20
32.04753833574187
0
LWPOLYLINE
5
7E
8
PARCELS
100
AcDbEntity
100
AcDbPolyline
90
5
70
1
10
34.79264485361333
20
32.04756601256988
10
34.79248930760803
20
32.047558410185225
10
34.79266158668353
20
32.04889657141633
10
34.792788419414336
20
32.04869847172882
10
34.79264485361333
20
32.04756601256988
0
ENDSEC
0
EOF
