0
SECTION
2
HEADER
9
$ACADVER
1
AC1015
9
$INSUNITS
70
6
0
ENDSEC
0
SECTION
2
TABLES
0
TABLE
2
LAYER
5
65
100
AcDbSymbolTable
70
1
0
LAYER
5
64
100
AcDbSymbolTableRecord
100
AcDbLayerTableRecord
2
PARCELS
70
0
62
1
6
Continuous
0
ENDTAB
0
ENDSEC
0
SECTION
2
ENTITIES
0
LWPOLYLINE
5
66
8
PARCELS
100
AcDbEntity
100
AcDbPolyline
90
9
70
1
10
34.78971802660141
20
32.05027512387048
10
34.78966340612708
20
32.05008393663589
10
34.78955212324386
20
32.05010975155082
10
34.78957926050271
20
32.05019906364764
10
34.78930430123698
20
32.05026290329123
10
34.789330266563745
20
32.05035611635998
10
34.789379584691325
20
32.05052553514817
10
34.78976664408743
20
32.05044274565588
10
34.78971802660141
20
32.05027512387048
0
LWPOLYLINE
5
67
8
PARCELS
100
AcDbEntity
100
AcDbPolyline
90
21
70
1
10
34.79039680723759
20
32.05272494785223
10
34.790218037257574
20
32.05217479671785
10
34.79006495517007
20
32.05172210112414
10
34.7888881504824
20
32.05195909994208
10
34.788375825111274
20
32.052076266790344
10
34.78783980966882
20
32.05221075649074
10
34.78782738088054
20
32.05220397205209
10
34.787966277655784
20
32.05250823115956
10
34.78814842730759
20
32.0529526722413
10
34.78830482705611
20
32.053331598141064
10
34.78843254439406
20
32.053649891558294
10
34.78858012495462
20
32.0541152203428
10
34.788833847450185
20
32.054103006140494
10
34.789465290431195
20
32.05404250648817
10
34.78991640724349
20
32.053981355588846
10
34.79002690910869
20
32.05396398401904
10
34.789988217593084
20
32.053609300183744
10
34.78998625488782
20
32.05359134811658
10
34.790662817962314
20
32.053530468730536
10
34.7905406726712
20
32.05314949594137
10
34.79039680723759
20
32.05272494785223
0
LWPOLYLINE
5
68
8
PARCELS
100
AcDbEntity
100
AcDbPolyline
90
5
70
1
10
34.78965983752263
20
32.049924370903646
10
34.789593676712116
20
32.04962978247249
10
34.78645518167291
20
32.050311130823935
10
34.786741537101015
20
32.05062239012111
10
34.78965983752263
20
32.049924370903646
0
LWPOLYLINE
5
69
8
PARCELS
100
AcDbEntity
100
AcDbPolyline
90
13
70
1
10
34.789137537223695
20
32.04751225638511
10
34.78910826388464
20
32.04750139580302
10
34.78911944676455
20
32.04756778811655
10
34.78912848313195
20
32.04762135892884
10
34.789161588285616
20
32.0478177172043
10
34.78916672767693
20
32.047848211009025
10
34.789366275697084
20
32.04903168032394
10
34.78949817677493
20
32.04906921630251
10
34.78950021001486
20
32.04907384103413
10
34.78952506396461
20
32.04877569610274
10
34.789379306420855
20
32.04832784894492
10
34.7891979009315
20
32.04751401869957
10
34.789137537223695
20
32.04751225638511
0
LWPOLYLINE
5
6A
8
PARCELS
100
AcDbEntity
100
AcDbPolyline
90
39
70
1
10
34.78962183367628
20
32.04877089056295
10
34.78929233536384
20
32.04750577714115
10
34.78927155009301
20
32.0475069472443
10
34.7891979009315
20
32.04751401869957
10
34.789379306420855
20
32.04832784894492
10
34.78952506396461
20
32.04877569610274
10
34.78950021001486
20
32.04907384103413
10
34.789507801881115
20
32.049162521062314
10
34.789519982826924
20
32.04928707767306
10
34.789569040176346
20
32.04950815922879
10
34.789593676712116
20
32.04962978247249
10
34.78965983752263
20
32.049924370903646
10
34.789687674166224
20
32.05004996255641
10
34.78966340612708
20
32.05008393663589
10
34.78971802660141
20
32.05027512387048
10
34.78976664408743
20
32.05044274565588
10
34.78978204531124
20
32.05050486636602
10
34.789802773612614
20
32.05053620830126
10
34.789942833222035
20
32.05115706302095
10
34.789998931765695
20
32.05144110342607
10
34.79006495517007
20
32.05172210112414
10
34.790218037257574
20
32.05217479671785
10
34.79039680723759
20
32.05272494785223
10
34.7905406726712
20
32.05314949594137
10
34.790662817962314
20
32.053530468730536
10
34.79077782396367
20
32.05390892012748
10
34.79087067719019
20
32.05391112584226
10
34.79081220540238
20
32.05373711477147
10
34.79071691797157
20
32.053456031957325
10
34.790662264680456
20
32.05332398371122
10
34.79048497119105
20
32.05280065258432
10
34.79041374082539
20
32.052574127998014
10
34.790322003016065
20
32.052300082298984
10
34.79017385218228
20
32.05188878887822
10
34.79010789394974
20
32.051695692707256
10
34.79013992775764
20
32.05168782555166
10
34.79003250796362
20
32.05118375431681
10
34.789633724387926
20
32.04916523898056
10
34.78962183367628
20
32.04877089056295
0
LWPOLYLINE
5
6B
8
PARCELS
100
AcDbEntity
100
AcDbPolyline
90
79
70
1
10
34.789569040176346
20
32.04950815922879
10
34.789519982826924
20
32.04928707767306
10
34.789507801881115
20
32.049162521062314
10
34.78950021001486
20
32.04907384103413
10
34.78949817677493
20
32.04906921630251
10
34.789366275697084
20
32.04903168032394
10
34.78927739346065
20
32.049013592447736
10
34.78926655583352
20
32.049011389051834
10
34.78900354870669
20
32.04895778263597
10
34.78881482349167
20
32.04891931049295
10
34.78872755266653
20
32.04890152871292
10
34.788558726594665
20
32.0488671371129
10
34.7885588221478
20
32.04887316771009
10
34.78855983227482
20
32.04892701973483
10
34.78855710982296
20
32.04901394356197
10
34.78844823317678
20
32.04920792257511
10
34.78829287188987
20
32.04933213057801
10
34.78823932598581
20
32.04935068503704
10
34.78804755752482
20
32.049417156824035
10
34.78802774894946
20
32.049423972440735
10
34.78792753514029
20
32.04945871485866
10
34.78783771964285
20
32.04946453933282
10
34.78781624362582
20
32.04946592876575
10
34.78773582892313
20
32.049471155509245
10
34.78771435187709
20
32.04947253770721
10
34.78759274327459
20
32.04948042992294
10
34.787397916374296
20
32.04943922031451
10
34.78738014944992
20
32.049435463623816
10
34.787374535678175
20
32.04943427463157
10
34.78729443539671
20
32.049417336083096
10
34.78725445664454
20
32.04940888731513
10
34.787062902549984
20
32.04941674273854
10
34.78704129744396
20
32.04941764645118
10
34.78694162160707
20
32.04942173434374
10
34.78690265081074
20
32.04942333023732
10
34.786703403513975
20
32.04937028882628
10
34.786698337947726
20
32.04936892756456
10
34.78667310594975
20
32.04936223609616
10
34.786532503730044
20
32.04932481369241
10
34.786531528676555
20
32.049324554369605
10
34.78653008923841
20
32.04932419882796
10
34.7865280303982
20
32.04932477369755
10
34.78639092491482
20
32.049365298226455
10
34.78637085448006
20
32.049371230767804
10
34.786229860936686
20
32.04941290471076
10
34.78622794401352
20
32.04941347102559
10
34.78622643855455
20
32.04941389621454
10
34.786220073900296
20
32.049415777099476
10
34.78621899250861
20
32.04941608374884
10
34.786128865025255
20
32.04944276623296
10
34.786069185744665
20
32.049460431110795
10
34.786057635529616
20
32.049463819806306
10
34.785993594530915
20
32.049482737272776
10
34.78593642357631
20
32.04950155924895
10
34.785827960826325
20
32.049537199815525
10
34.78582531610404
20
32.04953808295563
10
34.78582202992958
20
32.04953915605944
10
34.78578320301491
20
32.04955192799008
10
34.78572043317038
20
32.04957255570525
10
34.78555623943132
20
32.049659036256344
10
34.78551067529566
20
32.04978288208778
10
34.785513374915865
20
32.04986432280834
10
34.785560264630995
20
32.04991253060996
10
34.78562265007249
20
32.04997660520702
10
34.785623186247776
20
32.04997721298227
10
34.78565322650451
20
32.05000807954382
10
34.78573515462183
20
32.05005848705142
10
34.78575099171227
20
32.05006821197029
10
34.78578024768795
20
32.05008623349489
10
34.78578671553947
20
32.05008914148767
10
34.78586031273616
20
32.050122144779266
10
34.78589243249201
20
32.05013652978848
10
34.786083414606495
20
32.05022217473373
10
34.7861968096637
20
32.050273007711006
10
34.786339123002925
20
32.05033679189768
10
34.78634090557465
20
32.05033643615755
10
34.78645518167291
20
32.050311130823935
10
34.789593676712116
20
32.04962978247249
10
34.789569040176346
20
32.04950815922879
0
LWPOLYLINE
5
6C
8
PARCELS
100
AcDbEntity
100
AcDbPolyline
90
8
70
1
10
34.79024178191906
20
32.04745516253196
10
34.790224966863455
20
32.047454518729815
10
34.78929233536384
20
32.04750577714115
10
34.78962183367628
20
32.04877089056295
10
34.789633724387926
20
32.04916523898056
10
34.79003250796362
20
32.05118375431681
10
34.79086737149833
20
32.0510290870612
10
34.79024178191906
20
32.04745516253196
0
LWPOLYLINE
5
6D
8
PARCELS
100
AcDbEntity
100
AcDbPolyline
90
21
70
1
10
34.788375825111274
20
32.052076266790344
10
34.7888881504824
20
32.05195909994208
10
34.78836348419305
20
32.05066155854
10
34.789306101919195
20
32.05038942157723
10
34.78934782654889
20
32.05052870468149
10
34.789379584691325
20
32.05052553514817
10
34.789330266563745
20
32.05035611635998
10
34.78930430123698
20
32.05026290329123
10
34.78957926050271
20
32.05019906364764
10
34.78955212324386
20
32.05010975155082
10
34.78966340612708
20
32.05008393663589
10
34.789687674166224
20
32.05004996255641
10
34.78965983752263
20
32.049924370903646
10
34.786741537101015
20
32.05062239012111
10
34.78687530990666
20
32.05079737256405
10
34.786918748931754
20
32.05099205915266
10
34.78691586580331
20
32.051062705038596
10
34.78728674176338
20
32.05208828903358
10
34.787693328032226
20
32.051962599813535
10
34.78783980966882
20
32.05221075649074
10
34.788375825111274
20
32.052076266790344
0
LWPOLYLINE
5
6E
8
PARCELS
100
AcDbEntity
100
AcDbPolyline
90
21
70
1
10
34.788850079700815
20
32.04739413921613
10
34.78876915933259
20
32.04736055633646
10
34.78879982872541
20
32.04756949303975
10
34.7888236887838
20
32.04773210488482
10
34.788832272910355
20
32.04779059080505
10
34.7888459785749
20
32.04788396942535
10
34.78885514519783
20
32.04794664517527
10
34.78887824982271
20
32.04810402052327
10
34.78900354870669
20
32.04895778263597
10
34.78926655583352
20
32.049011389051834
10
34.78927739346065
20
32.049013592447736
10
34.789366275697084
20
32.04903168032394
10
34.78916672767693
20
32.047848211009025
10
34.789161588285616
20
32.0478177172043
10
34.78912848313195
20
32.04762135892884
10
34.78911944676455
20
32.04756778811655
10
34.78910826388464
20
32.04750139580302
10
34.789025640917984
20
32.04746707886128
10
34.789004724405906
20
32.047458393704225
10
34.788978512048736
20
32.047447541317965
10
34.788850079700815
20
32.04739413921613
0
LWPOLYLINE
5
6F
8
PARCELS
100
AcDbEntity
100
AcDbPolyline
90
12
70
1
10
34.789802773612614
20
32.05053620830126
10
34.78978204531124
20
32.05050486636602
10
34.78976664408743
20
32.05044274565588
10
34.789379584691325
20
32.05052553514817
10
34.78934782654889
20
32.05052870468149
10
34.789306101919195
20
32.05038942157723
10
34.78836348419305
20
32.05066155854
10
34.7888881504824
20
32.05195909994208
10
34.79006495517007
20
32.05172210112414
10
34.789998931765695
20
32.05144110342607
10
34.789942833222035
20
32.05115706302095
10
34.789802773612614
20
32.05053620830126
0
ENDSEC
0
EOF
